<mxfile host="" modified="2020-05-24T15:21:41.060Z" agent="5.0 (X11; Linux x86_64) AppleWebKit/537.36 (KHTML, like Gecko) Code/1.45.0 Chrome/78.0.3904.130 Electron/7.2.4 Safari/537.36" version="13.1.3" etag="lrwgP8mNOWNbAz78NI_h" pages="2">
            <diagram id="diagramid" name="Diagram">
              <mxGraphModel><root><mxCell id="0"/><mxCell id="1" parent="0"/><mxCell id="2" value="DependencyLayer" style="outlineConnect=0;fontColor=#B3B3B3;gradientColor=#aaaaaa;gradientDirection=north;fillColor=#aaaaaa;strokeColor=#ffffff;dashed=0;verticalLabelPosition=bottom;verticalAlign=top;align=center;html=1;fontSize=12;fontStyle=0;aspect=fixed;shape=mxgraph.aws4.resourceIcon;resIcon=mxgraph.aws4.serverless;" vertex="1" parent="1"><mxGeometry y="1400" width="50" height="50" as="geometry"/></mxCell><mxCell id="3" value="WebsocketTable" style="outlineConnect=0;fontColor=#B3B3B3;gradientColor=#4D72F3;gradientDirection=north;fillColor=#3334B9;strokeColor=#ffffff;dashed=0;verticalLabelPosition=bottom;verticalAlign=top;align=center;html=1;fontSize=12;fontStyle=0;aspect=fixed;shape=mxgraph.aws4.resourceIcon;resIcon=mxgraph.aws4.dynamodb;" vertex="1" parent="1"><mxGeometry x="750" y="675" width="50" height="50" as="geometry"/></mxCell><mxCell id="4" value="WebsocketApi" style="outlineConnect=0;fontColor=#B3B3B3;gradientColor=#aaaaaa;gradientDirection=north;fillColor=#aaaaaa;strokeColor=#ffffff;dashed=0;verticalLabelPosition=bottom;verticalAlign=top;align=center;html=1;fontSize=12;fontStyle=0;aspect=fixed;shape=mxgraph.aws4.resourceIcon;resIcon=mxgraph.aws4.apigatewayv2;" vertex="1" parent="1"><mxGeometry x="750" y="575" width="50" height="50" as="geometry"/></mxCell><mxCell id="5" value="WebSocketAuthorizer" style="outlineConnect=0;fontColor=#B3B3B3;gradientColor=#aaaaaa;gradientDirection=north;fillColor=#aaaaaa;strokeColor=#ffffff;dashed=0;verticalLabelPosition=bottom;verticalAlign=top;align=center;html=1;fontSize=12;fontStyle=0;aspect=fixed;shape=mxgraph.aws4.resourceIcon;resIcon=mxgraph.aws4.apigatewayv2;" vertex="1" parent="1"><mxGeometry x="250" y="50" width="50" height="50" as="geometry"/></mxCell><mxCell id="6" value="AuthorizerFunction" style="outlineConnect=0;fontColor=#B3B3B3;gradientColor=#F78E04;gradientDirection=north;fillColor=#D05C17;strokeColor=#ffffff;dashed=0;verticalLabelPosition=bottom;verticalAlign=top;align=center;html=1;fontSize=12;fontStyle=0;aspect=fixed;shape=mxgraph.aws4.resourceIcon;resIcon=mxgraph.aws4.lambda;" vertex="1" parent="1"><mxGeometry x="750" y="325.78125" width="50" height="50" as="geometry"/></mxCell><mxCell id="7" value="JwtSignatureSecret" style="outlineConnect=0;fontColor=#B3B3B3;gradientColor=#F54749;gradientDirection=north;fillColor=#C7131F;strokeColor=#ffffff;dashed=0;verticalLabelPosition=bottom;verticalAlign=top;align=center;html=1;fontSize=12;fontStyle=0;aspect=fixed;shape=mxgraph.aws4.resourceIcon;resIcon=mxgraph.aws4.secretsmanager;" vertex="1" parent="1"><mxGeometry x="1000" y="550.390625" width="50" height="50" as="geometry"/></mxCell><mxCell id="8" value="AuthorizerExecutionRole" style="outlineConnect=0;fontColor=#B3B3B3;gradientColor=#F54749;gradientDirection=north;fillColor=#C7131F;strokeColor=#ffffff;dashed=0;verticalLabelPosition=bottom;verticalAlign=top;align=center;html=1;fontSize=12;fontStyle=0;aspect=fixed;shape=mxgraph.aws4.resourceIcon;resIcon=mxgraph.aws4.role;" vertex="1" parent="1"><mxGeometry x="500" y="100" width="50" height="50" as="geometry"/></mxCell><mxCell id="9" value="ConnectRoute" style="outlineConnect=0;fontColor=#B3B3B3;gradientColor=#aaaaaa;gradientDirection=north;fillColor=#aaaaaa;strokeColor=#ffffff;dashed=0;verticalLabelPosition=bottom;verticalAlign=top;align=center;html=1;fontSize=12;fontStyle=0;aspect=fixed;shape=mxgraph.aws4.resourceIcon;resIcon=mxgraph.aws4.apigatewayv2;" vertex="1" parent="1"><mxGeometry y="50" width="50" height="50" as="geometry"/></mxCell><mxCell id="10" value="ConnectIntegration" style="outlineConnect=0;fontColor=#B3B3B3;gradientColor=#aaaaaa;gradientDirection=north;fillColor=#aaaaaa;strokeColor=#ffffff;dashed=0;verticalLabelPosition=bottom;verticalAlign=top;align=center;html=1;fontSize=12;fontStyle=0;aspect=fixed;shape=mxgraph.aws4.resourceIcon;resIcon=mxgraph.aws4.apigatewayv2;" vertex="1" parent="1"><mxGeometry x="250" y="150" width="50" height="50" as="geometry"/></mxCell><mxCell id="11" value="CreateConnectionFunction" style="outlineConnect=0;fontColor=#B3B3B3;gradientColor=#F78E04;gradientDirection=north;fillColor=#D05C17;strokeColor=#ffffff;dashed=0;verticalLabelPosition=bottom;verticalAlign=top;align=center;html=1;fontSize=12;fontStyle=0;aspect=fixed;shape=mxgraph.aws4.resourceIcon;resIcon=mxgraph.aws4.lambda;" vertex="1" parent="1"><mxGeometry x="250" y="800" width="50" height="50" as="geometry"/></mxCell><mxCell id="12" value="ConnectPermission" style="outlineConnect=0;fontColor=#B3B3B3;gradientColor=#F54749;gradientDirection=north;fillColor=#C7131F;strokeColor=#ffffff;dashed=0;verticalLabelPosition=bottom;verticalAlign=top;align=center;html=1;fontSize=12;fontStyle=0;aspect=fixed;shape=mxgraph.aws4.resourceIcon;resIcon=mxgraph.aws4.policy;" vertex="1" parent="1"><mxGeometry y="325" width="50" height="50" as="geometry"/></mxCell><mxCell id="13" value="DisconnectRoute" style="outlineConnect=0;fontColor=#B3B3B3;gradientColor=#aaaaaa;gradientDirection=north;fillColor=#aaaaaa;strokeColor=#ffffff;dashed=0;verticalLabelPosition=bottom;verticalAlign=top;align=center;html=1;fontSize=12;fontStyle=0;aspect=fixed;shape=mxgraph.aws4.resourceIcon;resIcon=mxgraph.aws4.apigatewayv2;" vertex="1" parent="1"><mxGeometry y="225" width="50" height="50" as="geometry"/></mxCell><mxCell id="14" value="DisconnectIntegration" style="outlineConnect=0;fontColor=#B3B3B3;gradientColor=#aaaaaa;gradientDirection=north;fillColor=#aaaaaa;strokeColor=#ffffff;dashed=0;verticalLabelPosition=bottom;verticalAlign=top;align=center;html=1;fontSize=12;fontStyle=0;aspect=fixed;shape=mxgraph.aws4.resourceIcon;resIcon=mxgraph.aws4.apigatewayv2;" vertex="1" parent="1"><mxGeometry x="250" y="300" width="50" height="50" as="geometry"/></mxCell><mxCell id="15" value="DeleteConnectionFunction" style="outlineConnect=0;fontColor=#B3B3B3;gradientColor=#F78E04;gradientDirection=north;fillColor=#D05C17;strokeColor=#ffffff;dashed=0;verticalLabelPosition=bottom;verticalAlign=top;align=center;html=1;fontSize=12;fontStyle=0;aspect=fixed;shape=mxgraph.aws4.resourceIcon;resIcon=mxgraph.aws4.lambda;" vertex="1" parent="1"><mxGeometry x="250" y="950" width="50" height="50" as="geometry"/></mxCell><mxCell id="16" value="DisconnectPermission" style="outlineConnect=0;fontColor=#B3B3B3;gradientColor=#F54749;gradientDirection=north;fillColor=#C7131F;strokeColor=#ffffff;dashed=0;verticalLabelPosition=bottom;verticalAlign=top;align=center;html=1;fontSize=12;fontStyle=0;aspect=fixed;shape=mxgraph.aws4.resourceIcon;resIcon=mxgraph.aws4.policy;" vertex="1" parent="1"><mxGeometry y="525" width="50" height="50" as="geometry"/></mxCell><mxCell id="17" value="DeleteSubscriptionRoute" style="outlineConnect=0;fontColor=#B3B3B3;gradientColor=#aaaaaa;gradientDirection=north;fillColor=#aaaaaa;strokeColor=#ffffff;dashed=0;verticalLabelPosition=bottom;verticalAlign=top;align=center;html=1;fontSize=12;fontStyle=0;aspect=fixed;shape=mxgraph.aws4.resourceIcon;resIcon=mxgraph.aws4.apigatewayv2;" vertex="1" parent="1"><mxGeometry y="425" width="50" height="50" as="geometry"/></mxCell><mxCell id="18" value="DeleteSubscriptionIntegration" style="outlineConnect=0;fontColor=#B3B3B3;gradientColor=#aaaaaa;gradientDirection=north;fillColor=#aaaaaa;strokeColor=#ffffff;dashed=0;verticalLabelPosition=bottom;verticalAlign=top;align=center;html=1;fontSize=12;fontStyle=0;aspect=fixed;shape=mxgraph.aws4.resourceIcon;resIcon=mxgraph.aws4.apigatewayv2;" vertex="1" parent="1"><mxGeometry x="250" y="450" width="50" height="50" as="geometry"/></mxCell><mxCell id="19" value="DeleteSubscriptionFunction" style="outlineConnect=0;fontColor=#B3B3B3;gradientColor=#F78E04;gradientDirection=north;fillColor=#D05C17;strokeColor=#ffffff;dashed=0;verticalLabelPosition=bottom;verticalAlign=top;align=center;html=1;fontSize=12;fontStyle=0;aspect=fixed;shape=mxgraph.aws4.resourceIcon;resIcon=mxgraph.aws4.lambda;" vertex="1" parent="1"><mxGeometry x="250" y="1050" width="50" height="50" as="geometry"/></mxCell><mxCell id="20" value="DeleteSubscriptionPermission" style="outlineConnect=0;fontColor=#B3B3B3;gradientColor=#F54749;gradientDirection=north;fillColor=#C7131F;strokeColor=#ffffff;dashed=0;verticalLabelPosition=bottom;verticalAlign=top;align=center;html=1;fontSize=12;fontStyle=0;aspect=fixed;shape=mxgraph.aws4.resourceIcon;resIcon=mxgraph.aws4.policy;" vertex="1" parent="1"><mxGeometry y="725" width="50" height="50" as="geometry"/></mxCell><mxCell id="21" value="CreateSubscriptionRoute" style="outlineConnect=0;fontColor=#B3B3B3;gradientColor=#aaaaaa;gradientDirection=north;fillColor=#aaaaaa;strokeColor=#ffffff;dashed=0;verticalLabelPosition=bottom;verticalAlign=top;align=center;html=1;fontSize=12;fontStyle=0;aspect=fixed;shape=mxgraph.aws4.resourceIcon;resIcon=mxgraph.aws4.apigatewayv2;" vertex="1" parent="1"><mxGeometry y="625" width="50" height="50" as="geometry"/></mxCell><mxCell id="22" value="CreateSubscriptionIntegration" style="outlineConnect=0;fontColor=#B3B3B3;gradientColor=#aaaaaa;gradientDirection=north;fillColor=#aaaaaa;strokeColor=#ffffff;dashed=0;verticalLabelPosition=bottom;verticalAlign=top;align=center;html=1;fontSize=12;fontStyle=0;aspect=fixed;shape=mxgraph.aws4.resourceIcon;resIcon=mxgraph.aws4.apigatewayv2;" vertex="1" parent="1"><mxGeometry x="250" y="600" width="50" height="50" as="geometry"/></mxCell><mxCell id="23" value="CreateSubscriptionFunction" style="outlineConnect=0;fontColor=#B3B3B3;gradientColor=#F78E04;gradientDirection=north;fillColor=#D05C17;strokeColor=#ffffff;dashed=0;verticalLabelPosition=bottom;verticalAlign=top;align=center;html=1;fontSize=12;fontStyle=0;aspect=fixed;shape=mxgraph.aws4.resourceIcon;resIcon=mxgraph.aws4.lambda;" vertex="1" parent="1"><mxGeometry x="250" y="1150" width="50" height="50" as="geometry"/></mxCell><mxCell id="24" value="CreateSubscriptionPermission" style="outlineConnect=0;fontColor=#B3B3B3;gradientColor=#F54749;gradientDirection=north;fillColor=#C7131F;strokeColor=#ffffff;dashed=0;verticalLabelPosition=bottom;verticalAlign=top;align=center;html=1;fontSize=12;fontStyle=0;aspect=fixed;shape=mxgraph.aws4.resourceIcon;resIcon=mxgraph.aws4.policy;" vertex="1" parent="1"><mxGeometry y="925" width="50" height="50" as="geometry"/></mxCell><mxCell id="25" value="Stage" style="outlineConnect=0;fontColor=#B3B3B3;gradientColor=#aaaaaa;gradientDirection=north;fillColor=#aaaaaa;strokeColor=#ffffff;dashed=0;verticalLabelPosition=bottom;verticalAlign=top;align=center;html=1;fontSize=12;fontStyle=0;aspect=fixed;shape=mxgraph.aws4.resourceIcon;resIcon=mxgraph.aws4.apigatewayv2;" vertex="1" parent="1"><mxGeometry y="825" width="50" height="50" as="geometry"/></mxCell><mxCell id="26" value="Deployment" style="outlineConnect=0;fontColor=#B3B3B3;gradientColor=#aaaaaa;gradientDirection=north;fillColor=#aaaaaa;strokeColor=#ffffff;dashed=0;verticalLabelPosition=bottom;verticalAlign=top;align=center;html=1;fontSize=12;fontStyle=0;aspect=fixed;shape=mxgraph.aws4.resourceIcon;resIcon=mxgraph.aws4.apigatewayv2;" vertex="1" parent="1"><mxGeometry x="250" y="700" width="50" height="50" as="geometry"/></mxCell><mxCell id="27" value="PostToSubscriptionsFunction" style="outlineConnect=0;fontColor=#B3B3B3;gradientColor=#F78E04;gradientDirection=north;fillColor=#D05C17;strokeColor=#ffffff;dashed=0;verticalLabelPosition=bottom;verticalAlign=top;align=center;html=1;fontSize=12;fontStyle=0;aspect=fixed;shape=mxgraph.aws4.resourceIcon;resIcon=mxgraph.aws4.lambda;" vertex="1" parent="1"><mxGeometry x="500" y="1100" width="50" height="50" as="geometry"/></mxCell><mxCell id="28" value="EntityUpdatedQueue" style="outlineConnect=0;fontColor=#B3B3B3;gradientColor=#F34482;gradientDirection=north;fillColor=#BC1356;strokeColor=#ffffff;dashed=0;verticalLabelPosition=bottom;verticalAlign=top;align=center;html=1;fontSize=12;fontStyle=0;aspect=fixed;shape=mxgraph.aws4.resourceIcon;resIcon=mxgraph.aws4.sqs;" vertex="1" parent="1"><mxGeometry x="250" y="1250" width="50" height="50" as="geometry"/></mxCell><mxCell id="29" value="EntityUpdatedNotificationEventBridgeRule" style="outlineConnect=0;fontColor=#B3B3B3;gradientColor=#F34482;gradientDirection=north;fillColor=#BC1356;strokeColor=#ffffff;dashed=0;verticalLabelPosition=bottom;verticalAlign=top;align=center;html=1;fontSize=12;fontStyle=0;aspect=fixed;shape=mxgraph.aws4.resourceIcon;resIcon=mxgraph.aws4.eventbridge;" vertex="1" parent="1"><mxGeometry y="1250" width="50" height="50" as="geometry"/></mxCell><mxCell id="30" value="EntityUpdatedQueuePolicy" style="outlineConnect=0;fontColor=#B3B3B3;gradientColor=#F34482;gradientDirection=north;fillColor=#BC1356;strokeColor=#ffffff;dashed=0;verticalLabelPosition=bottom;verticalAlign=top;align=center;html=1;fontSize=12;fontStyle=0;aspect=fixed;shape=mxgraph.aws4.resourceIcon;resIcon=mxgraph.aws4.sqs;" vertex="1" parent="1"><mxGeometry y="1025" width="50" height="50" as="geometry"/></mxCell><mxCell id="31" value="CreateTestJwt" style="outlineConnect=0;fontColor=#B3B3B3;gradientColor=#F78E04;gradientDirection=north;fillColor=#D05C17;strokeColor=#ffffff;dashed=0;verticalLabelPosition=bottom;verticalAlign=top;align=center;html=1;fontSize=12;fontStyle=0;aspect=fixed;shape=mxgraph.aws4.resourceIcon;resIcon=mxgraph.aws4.lambda;" vertex="1" parent="1"><mxGeometry x="750" y="775" width="50" height="50" as="geometry"/></mxCell><mxCell id="32" value="apigateway  lambda&#xA;authorizerfunction/invocations" style="outlineConnect=0;fontColor=#B3B3B3;gradientColor=#aaaaaa;gradientDirection=north;fillColor=#aaaaaa;strokeColor=#ffffff;dashed=0;verticalLabelPosition=bottom;verticalAlign=top;align=center;html=1;fontSize=12;fontStyle=0;aspect=fixed;shape=mxgraph.aws4.resourceIcon;resIcon=mxgraph.aws4.apigateway;" vertex="1" parent="1"><mxGeometry x="500" y="300" width="50" height="50" as="geometry"/></mxCell><mxCell id="33" value="iam  aws&#xA;policy/service-role/awslambdabasicexecutionrole" style="outlineConnect=0;fontColor=#B3B3B3;gradientColor=#aaaaaa;gradientDirection=north;fillColor=#aaaaaa;strokeColor=#ffffff;dashed=0;verticalLabelPosition=bottom;verticalAlign=top;align=center;html=1;fontSize=12;fontStyle=0;aspect=fixed;shape=mxgraph.aws4.resourceIcon;resIcon=mxgraph.aws4.identity_and_access_management;" vertex="1" parent="1"><mxGeometry x="750" y="437.5" width="50" height="50" as="geometry"/></mxCell><mxCell id="34" value="apigateway  lambda&#xA;path/2015-03-31/functions/${createconnectionfunction.arn}/invocations" style="outlineConnect=0;fontColor=#B3B3B3;gradientColor=#aaaaaa;gradientDirection=north;fillColor=#aaaaaa;strokeColor=#ffffff;dashed=0;verticalLabelPosition=bottom;verticalAlign=top;align=center;html=1;fontSize=12;fontStyle=0;aspect=fixed;shape=mxgraph.aws4.resourceIcon;resIcon=mxgraph.aws4.apigateway;" vertex="1" parent="1"><mxGeometry y="1550" width="50" height="50" as="geometry"/></mxCell><mxCell id="35" value="apigateway  lambda&#xA;path/2015-03-31/functions/${deleteconnectionfunction.arn}/invocations" style="outlineConnect=0;fontColor=#B3B3B3;gradientColor=#aaaaaa;gradientDirection=north;fillColor=#aaaaaa;strokeColor=#ffffff;dashed=0;verticalLabelPosition=bottom;verticalAlign=top;align=center;html=1;fontSize=12;fontStyle=0;aspect=fixed;shape=mxgraph.aws4.resourceIcon;resIcon=mxgraph.aws4.apigateway;" vertex="1" parent="1"><mxGeometry y="1700" width="50" height="50" as="geometry"/></mxCell><mxCell id="36" value="execute-api  &#xA;${websocketapi}/*" style="outlineConnect=0;fontColor=#B3B3B3;gradientColor=#aaaaaa;gradientDirection=north;fillColor=#aaaaaa;strokeColor=#ffffff;dashed=0;verticalLabelPosition=bottom;verticalAlign=top;align=center;html=1;fontSize=12;fontStyle=0;aspect=fixed;shape=mxgraph.aws4.resourceIcon;resIcon=mxgraph.aws4.execute-api;" vertex="1" parent="1"><mxGeometry x="750" y="1137.5" width="50" height="50" as="geometry"/></mxCell><mxCell id="37" value="apigateway  lambda&#xA;path/2015-03-31/functions/${deletesubscriptionfunction.arn}/invocations" style="outlineConnect=0;fontColor=#B3B3B3;gradientColor=#aaaaaa;gradientDirection=north;fillColor=#aaaaaa;strokeColor=#ffffff;dashed=0;verticalLabelPosition=bottom;verticalAlign=top;align=center;html=1;fontSize=12;fontStyle=0;aspect=fixed;shape=mxgraph.aws4.resourceIcon;resIcon=mxgraph.aws4.apigateway;" vertex="1" parent="1"><mxGeometry y="1850" width="50" height="50" as="geometry"/></mxCell><mxCell id="38" value="apigateway  lambda&#xA;path/2015-03-31/functions/${createsubscriptionfunction.arn}/invocations" style="outlineConnect=0;fontColor=#B3B3B3;gradientColor=#aaaaaa;gradientDirection=north;fillColor=#aaaaaa;strokeColor=#ffffff;dashed=0;verticalLabelPosition=bottom;verticalAlign=top;align=center;html=1;fontSize=12;fontStyle=0;aspect=fixed;shape=mxgraph.aws4.resourceIcon;resIcon=mxgraph.aws4.apigateway;" vertex="1" parent="1"><mxGeometry y="2000" width="50" height="50" as="geometry"/></mxCell><mxCell id="WebsocketApi|WebSocketAuthorizer" value="ApiId" style="edgeStyle=orthogonalEdgeStyle;rounded=1;orthogonalLoop=1;jettySize=auto;html=1;labelBackgroundColor=none;fontColor=#EA6B66;noEdgeStyle=1;orthogonal=1;" edge="1" parent="1" source="5" target="4"><mxGeometry relative="1" as="geometry"><Array as="points"><mxPoint x="314" y="75"/><mxPoint x="400" y="250"/><mxPoint x="650" y="250"/><mxPoint x="736" y="580.7692307692307"/></Array></mxGeometry></mxCell><mxCell id="apigateway  lambda&#xA;authorizerfunction/invocations|WebSocketAuthorizer" value="AuthorizerUri" style="edgeStyle=orthogonalEdgeStyle;rounded=1;orthogonalLoop=1;jettySize=auto;html=1;labelBackgroundColor=none;fontColor=#EA6B66;noEdgeStyle=1;orthogonal=1;" edge="1" parent="1" source="5" target="32"><mxGeometry relative="1" as="geometry"><Array as="points"><mxPoint x="312" y="88.33333333333333"/><mxPoint x="488" y="325"/></Array></mxGeometry></mxCell><mxCell id="AuthorizerExecutionRole|WebSocketAuthorizer" value="AuthorizerCredentialsArn" style="edgeStyle=orthogonalEdgeStyle;rounded=1;orthogonalLoop=1;jettySize=auto;html=1;labelBackgroundColor=none;fontColor=#EA6B66;noEdgeStyle=1;orthogonal=1;" edge="1" parent="1" source="5" target="8"><mxGeometry relative="1" as="geometry"><Array as="points"><mxPoint x="312" y="61.666666666666664"/><mxPoint x="488" y="125"/></Array></mxGeometry></mxCell><mxCell id="JwtSignatureSecret|AuthorizerFunction" value="Variable&#xA;Statement" style="edgeStyle=orthogonalEdgeStyle;rounded=1;orthogonalLoop=1;jettySize=auto;html=1;labelBackgroundColor=none;fontColor=#EA6B66;noEdgeStyle=1;orthogonal=1;" edge="1" parent="1" source="6" target="7"><mxGeometry relative="1" as="geometry"><Array as="points"><mxPoint x="812" y="350.78125"/><mxPoint x="988" y="565.390625"/></Array></mxGeometry></mxCell><mxCell id="iam  aws&#xA;policy/service-role/awslambdabasicexecutionrole|AuthorizerExecutionRole" value="ManagedPolicyArns" style="edgeStyle=orthogonalEdgeStyle;rounded=1;orthogonalLoop=1;jettySize=auto;html=1;labelBackgroundColor=none;fontColor=#EA6B66;noEdgeStyle=1;orthogonal=1;" edge="1" parent="1" source="8" target="33"><mxGeometry relative="1" as="geometry"><Array as="points"><mxPoint x="562" y="135"/><mxPoint x="738" y="462.5"/></Array></mxGeometry></mxCell><mxCell id="AuthorizerFunction|AuthorizerExecutionRole" value="PolicyDocument" style="edgeStyle=orthogonalEdgeStyle;rounded=1;orthogonalLoop=1;jettySize=auto;html=1;labelBackgroundColor=none;fontColor=#EA6B66;noEdgeStyle=1;orthogonal=1;" edge="1" parent="1" source="8" target="6"><mxGeometry relative="1" as="geometry"><Array as="points"><mxPoint x="562" y="115"/><mxPoint x="738" y="350.78125"/></Array></mxGeometry></mxCell><mxCell id="WebsocketApi|ConnectRoute" value="ApiId" style="edgeStyle=orthogonalEdgeStyle;rounded=1;orthogonalLoop=1;jettySize=auto;html=1;labelBackgroundColor=none;fontColor=#EA6B66;noEdgeStyle=1;orthogonal=1;" edge="1" parent="1" source="9" target="4"><mxGeometry relative="1" as="geometry"><Array as="points"><mxPoint x="62" y="61.666666666666664"/><mxPoint x="150"/><mxPoint x="400"/><mxPoint x="400" y="200"/><mxPoint x="650" y="200"/><mxPoint x="738" y="576.9230769230769"/></Array></mxGeometry></mxCell><mxCell id="WebSocketAuthorizer|ConnectRoute" value="AuthorizerId" style="edgeStyle=orthogonalEdgeStyle;rounded=1;orthogonalLoop=1;jettySize=auto;html=1;labelBackgroundColor=none;fontColor=#EA6B66;noEdgeStyle=1;orthogonal=1;" edge="1" parent="1" source="9" target="5"><mxGeometry relative="1" as="geometry"><Array as="points"><mxPoint x="64" y="75"/><mxPoint x="238" y="75"/></Array></mxGeometry></mxCell><mxCell id="ConnectIntegration|ConnectRoute" value="Target" style="edgeStyle=orthogonalEdgeStyle;rounded=1;orthogonalLoop=1;jettySize=auto;html=1;labelBackgroundColor=none;fontColor=#EA6B66;noEdgeStyle=1;orthogonal=1;" edge="1" parent="1" source="9" target="10"><mxGeometry relative="1" as="geometry"><Array as="points"><mxPoint x="62" y="88.33333333333333"/><mxPoint x="238" y="175"/></Array></mxGeometry></mxCell><mxCell id="WebsocketApi|ConnectIntegration" value="ApiId" style="edgeStyle=orthogonalEdgeStyle;rounded=1;orthogonalLoop=1;jettySize=auto;html=1;labelBackgroundColor=none;fontColor=#EA6B66;noEdgeStyle=1;orthogonal=1;" edge="1" parent="1" source="10" target="4"><mxGeometry relative="1" as="geometry"><Array as="points"><mxPoint x="312" y="175"/><mxPoint x="400" y="400"/><mxPoint x="650" y="400"/><mxPoint x="734" y="584.6153846153845"/></Array></mxGeometry></mxCell><mxCell id="WebsocketTable|CreateConnectionFunction" value="Statement" style="edgeStyle=orthogonalEdgeStyle;rounded=1;orthogonalLoop=1;jettySize=auto;html=1;labelBackgroundColor=none;fontColor=#EA6B66;noEdgeStyle=1;orthogonal=1;" edge="1" parent="1" source="11" target="3"><mxGeometry relative="1" as="geometry"><Array as="points"><mxPoint x="312" y="825"/><mxPoint x="400" y="850"/><mxPoint x="650" y="850"/><mxPoint x="738" y="684"/></Array></mxGeometry></mxCell><mxCell id="CreateConnectionFunction|ConnectPermission" value="FunctionName" style="edgeStyle=orthogonalEdgeStyle;rounded=1;orthogonalLoop=1;jettySize=auto;html=1;labelBackgroundColor=none;fontColor=#EA6B66;noEdgeStyle=1;orthogonal=1;" edge="1" parent="1" source="12" target="11"><mxGeometry relative="1" as="geometry"><Array as="points"><mxPoint x="62" y="350"/><mxPoint x="238" y="825"/></Array></mxGeometry></mxCell><mxCell id="WebsocketApi|DisconnectRoute" value="ApiId" style="edgeStyle=orthogonalEdgeStyle;rounded=1;orthogonalLoop=1;jettySize=auto;html=1;labelBackgroundColor=none;fontColor=#EA6B66;noEdgeStyle=1;orthogonal=1;" edge="1" parent="1" source="13" target="4"><mxGeometry relative="1" as="geometry"><Array as="points"><mxPoint x="62" y="240"/><mxPoint x="150" y="250"/><mxPoint x="400" y="250"/><mxPoint x="400" y="450"/><mxPoint x="650" y="450"/><mxPoint x="732" y="588.4615384615383"/></Array></mxGeometry></mxCell><mxCell id="DisconnectIntegration|DisconnectRoute" value="Target" style="edgeStyle=orthogonalEdgeStyle;rounded=1;orthogonalLoop=1;jettySize=auto;html=1;labelBackgroundColor=none;fontColor=#EA6B66;noEdgeStyle=1;orthogonal=1;" edge="1" parent="1" source="13" target="14"><mxGeometry relative="1" as="geometry"><Array as="points"><mxPoint x="62" y="260"/><mxPoint x="238" y="325"/></Array></mxGeometry></mxCell><mxCell id="WebsocketApi|DisconnectIntegration" value="ApiId" style="edgeStyle=orthogonalEdgeStyle;rounded=1;orthogonalLoop=1;jettySize=auto;html=1;labelBackgroundColor=none;fontColor=#EA6B66;noEdgeStyle=1;orthogonal=1;" edge="1" parent="1" source="14" target="4"><mxGeometry relative="1" as="geometry"><Array as="points"><mxPoint x="312" y="325"/><mxPoint x="400" y="500"/><mxPoint x="650" y="500"/><mxPoint x="730" y="592.3076923076922"/></Array></mxGeometry></mxCell><mxCell id="WebsocketApi|DeleteConnectionFunction" value="Variable" style="edgeStyle=orthogonalEdgeStyle;rounded=1;orthogonalLoop=1;jettySize=auto;html=1;labelBackgroundColor=none;fontColor=#EA6B66;noEdgeStyle=1;orthogonal=1;" edge="1" parent="1" source="15" target="4"><mxGeometry relative="1" as="geometry"><Array as="points"><mxPoint x="312" y="961.6666666666666"/><mxPoint x="400" y="900"/><mxPoint x="650" y="900"/><mxPoint x="736" y="619.2307692307688"/></Array></mxGeometry></mxCell><mxCell id="execute-api  &#xA;${websocketapi}/*|DeleteConnectionFunction" value="Statement" style="edgeStyle=orthogonalEdgeStyle;rounded=1;orthogonalLoop=1;jettySize=auto;html=1;labelBackgroundColor=none;fontColor=#EA6B66;noEdgeStyle=1;orthogonal=1;" edge="1" parent="1" source="15" target="36"><mxGeometry relative="1" as="geometry"><Array as="points"><mxPoint x="312" y="988.3333333333334"/><mxPoint x="400" y="1200"/><mxPoint x="650" y="1200"/><mxPoint x="738" y="1172.5"/></Array></mxGeometry></mxCell><mxCell id="WebsocketTable|DeleteConnectionFunction" value="Statement" style="edgeStyle=orthogonalEdgeStyle;rounded=1;orthogonalLoop=1;jettySize=auto;html=1;labelBackgroundColor=none;fontColor=#EA6B66;noEdgeStyle=1;orthogonal=1;" edge="1" parent="1" source="15" target="3"><mxGeometry relative="1" as="geometry"><Array as="points"><mxPoint x="314" y="975"/><mxPoint x="400" y="950"/><mxPoint x="650" y="950"/><mxPoint x="736" y="692"/></Array></mxGeometry></mxCell><mxCell id="DeleteConnectionFunction|DisconnectPermission" value="FunctionName" style="edgeStyle=orthogonalEdgeStyle;rounded=1;orthogonalLoop=1;jettySize=auto;html=1;labelBackgroundColor=none;fontColor=#EA6B66;noEdgeStyle=1;orthogonal=1;" edge="1" parent="1" source="16" target="15"><mxGeometry relative="1" as="geometry"><Array as="points"><mxPoint x="62" y="550"/><mxPoint x="238" y="975"/></Array></mxGeometry></mxCell><mxCell id="WebsocketApi|DeleteSubscriptionRoute" value="ApiId" style="edgeStyle=orthogonalEdgeStyle;rounded=1;orthogonalLoop=1;jettySize=auto;html=1;labelBackgroundColor=none;fontColor=#EA6B66;noEdgeStyle=1;orthogonal=1;" edge="1" parent="1" source="17" target="4"><mxGeometry relative="1" as="geometry"><Array as="points"><mxPoint x="62" y="440"/><mxPoint x="150" y="400"/><mxPoint x="400" y="400"/><mxPoint x="400" y="550"/><mxPoint x="650" y="550"/><mxPoint x="728" y="596.153846153846"/></Array></mxGeometry></mxCell><mxCell id="DeleteSubscriptionIntegration|DeleteSubscriptionRoute" value="Target" style="edgeStyle=orthogonalEdgeStyle;rounded=1;orthogonalLoop=1;jettySize=auto;html=1;labelBackgroundColor=none;fontColor=#EA6B66;noEdgeStyle=1;orthogonal=1;" edge="1" parent="1" source="17" target="18"><mxGeometry relative="1" as="geometry"><Array as="points"><mxPoint x="62" y="460"/><mxPoint x="238" y="475"/></Array></mxGeometry></mxCell><mxCell id="WebsocketApi|DeleteSubscriptionIntegration" value="ApiId" style="edgeStyle=orthogonalEdgeStyle;rounded=1;orthogonalLoop=1;jettySize=auto;html=1;labelBackgroundColor=none;fontColor=#EA6B66;noEdgeStyle=1;orthogonal=1;" edge="1" parent="1" source="18" target="4"><mxGeometry relative="1" as="geometry"><Array as="points"><mxPoint x="312" y="475"/><mxPoint x="400" y="600"/><mxPoint x="650" y="600"/><mxPoint x="726" y="599.9999999999998"/></Array></mxGeometry></mxCell><mxCell id="WebsocketTable|DeleteSubscriptionFunction" value="Statement" style="edgeStyle=orthogonalEdgeStyle;rounded=1;orthogonalLoop=1;jettySize=auto;html=1;labelBackgroundColor=none;fontColor=#EA6B66;noEdgeStyle=1;orthogonal=1;" edge="1" parent="1" source="19" target="3"><mxGeometry relative="1" as="geometry"><Array as="points"><mxPoint x="312" y="1075"/><mxPoint x="400" y="1000"/><mxPoint x="650" y="1000"/><mxPoint x="734" y="700"/></Array></mxGeometry></mxCell><mxCell id="DeleteSubscriptionFunction|DeleteSubscriptionPermission" value="FunctionName" style="edgeStyle=orthogonalEdgeStyle;rounded=1;orthogonalLoop=1;jettySize=auto;html=1;labelBackgroundColor=none;fontColor=#EA6B66;noEdgeStyle=1;orthogonal=1;" edge="1" parent="1" source="20" target="19"><mxGeometry relative="1" as="geometry"><Array as="points"><mxPoint x="62" y="750"/><mxPoint x="238" y="1075"/></Array></mxGeometry></mxCell><mxCell id="WebsocketApi|CreateSubscriptionRoute" value="ApiId" style="edgeStyle=orthogonalEdgeStyle;rounded=1;orthogonalLoop=1;jettySize=auto;html=1;labelBackgroundColor=none;fontColor=#EA6B66;noEdgeStyle=1;orthogonal=1;" edge="1" parent="1" source="21" target="4"><mxGeometry relative="1" as="geometry"><Array as="points"><mxPoint x="62" y="640"/><mxPoint x="150" y="550"/><mxPoint x="400" y="550"/><mxPoint x="400" y="650"/><mxPoint x="650" y="650"/><mxPoint x="728" y="603.8461538461536"/></Array></mxGeometry></mxCell><mxCell id="CreateSubscriptionIntegration|CreateSubscriptionRoute" value="Target" style="edgeStyle=orthogonalEdgeStyle;rounded=1;orthogonalLoop=1;jettySize=auto;html=1;labelBackgroundColor=none;fontColor=#EA6B66;noEdgeStyle=1;orthogonal=1;" edge="1" parent="1" source="21" target="22"><mxGeometry relative="1" as="geometry"><Array as="points"><mxPoint x="62" y="660"/><mxPoint x="238" y="625"/></Array></mxGeometry></mxCell><mxCell id="WebsocketApi|CreateSubscriptionIntegration" value="ApiId" style="edgeStyle=orthogonalEdgeStyle;rounded=1;orthogonalLoop=1;jettySize=auto;html=1;labelBackgroundColor=none;fontColor=#EA6B66;noEdgeStyle=1;orthogonal=1;" edge="1" parent="1" source="22" target="4"><mxGeometry relative="1" as="geometry"><Array as="points"><mxPoint x="312" y="625"/><mxPoint x="400" y="700"/><mxPoint x="650" y="700"/><mxPoint x="730" y="607.6923076923074"/></Array></mxGeometry></mxCell><mxCell id="WebsocketTable|CreateSubscriptionFunction" value="Statement" style="edgeStyle=orthogonalEdgeStyle;rounded=1;orthogonalLoop=1;jettySize=auto;html=1;labelBackgroundColor=none;fontColor=#EA6B66;noEdgeStyle=1;orthogonal=1;" edge="1" parent="1" source="23" target="3"><mxGeometry relative="1" as="geometry"><Array as="points"><mxPoint x="312" y="1175"/><mxPoint x="400" y="1050"/><mxPoint x="650" y="1050"/><mxPoint x="736" y="708"/></Array></mxGeometry></mxCell><mxCell id="CreateSubscriptionFunction|CreateSubscriptionPermission" value="FunctionName" style="edgeStyle=orthogonalEdgeStyle;rounded=1;orthogonalLoop=1;jettySize=auto;html=1;labelBackgroundColor=none;fontColor=#EA6B66;noEdgeStyle=1;orthogonal=1;" edge="1" parent="1" source="24" target="23"><mxGeometry relative="1" as="geometry"><Array as="points"><mxPoint x="62" y="950"/><mxPoint x="238" y="1175"/></Array></mxGeometry></mxCell><mxCell id="Deployment|Stage" value="DeploymentId" style="edgeStyle=orthogonalEdgeStyle;rounded=1;orthogonalLoop=1;jettySize=auto;html=1;labelBackgroundColor=none;fontColor=#EA6B66;noEdgeStyle=1;orthogonal=1;" edge="1" parent="1" source="25" target="26"><mxGeometry relative="1" as="geometry"><Array as="points"><mxPoint x="62" y="840"/><mxPoint x="238" y="725"/></Array></mxGeometry></mxCell><mxCell id="WebsocketApi|Stage" value="ApiId" style="edgeStyle=orthogonalEdgeStyle;rounded=1;orthogonalLoop=1;jettySize=auto;html=1;labelBackgroundColor=none;fontColor=#EA6B66;noEdgeStyle=1;orthogonal=1;" edge="1" parent="1" source="25" target="4"><mxGeometry relative="1" as="geometry"><Array as="points"><mxPoint x="62" y="860"/><mxPoint x="150" y="900"/><mxPoint x="400" y="900"/><mxPoint x="400" y="800"/><mxPoint x="650" y="800"/><mxPoint x="734" y="615.384615384615"/></Array></mxGeometry></mxCell><mxCell id="WebsocketApi|Deployment" value="ApiId" style="edgeStyle=orthogonalEdgeStyle;rounded=1;orthogonalLoop=1;jettySize=auto;html=1;labelBackgroundColor=none;fontColor=#EA6B66;noEdgeStyle=1;orthogonal=1;" edge="1" parent="1" source="26" target="4"><mxGeometry relative="1" as="geometry"><Array as="points"><mxPoint x="312" y="725"/><mxPoint x="400" y="750"/><mxPoint x="650" y="750"/><mxPoint x="732" y="611.5384615384612"/></Array></mxGeometry></mxCell><mxCell id="WebsocketApi|PostToSubscriptionsFunction" value="Variable" style="edgeStyle=orthogonalEdgeStyle;rounded=1;orthogonalLoop=1;jettySize=auto;html=1;labelBackgroundColor=none;fontColor=#EA6B66;noEdgeStyle=1;orthogonal=1;" edge="1" parent="1" source="27" target="4"><mxGeometry relative="1" as="geometry"><Array as="points"><mxPoint x="562" y="1111.6666666666667"/><mxPoint x="738" y="623.0769230769226"/></Array></mxGeometry></mxCell><mxCell id="execute-api  &#xA;${websocketapi}/*|PostToSubscriptionsFunction" value="Statement" style="edgeStyle=orthogonalEdgeStyle;rounded=1;orthogonalLoop=1;jettySize=auto;html=1;labelBackgroundColor=none;fontColor=#EA6B66;noEdgeStyle=1;orthogonal=1;" edge="1" parent="1" source="27" target="36"><mxGeometry relative="1" as="geometry"><Array as="points"><mxPoint x="562" y="1138.3333333333333"/><mxPoint x="738" y="1152.5"/></Array></mxGeometry></mxCell><mxCell id="EntityUpdatedQueue|PostToSubscriptionsFunction" value="Invoke" style="edgeStyle=orthogonalEdgeStyle;rounded=1;orthogonalLoop=1;jettySize=auto;html=1;fillColor=#1ba1e2;strokeColor=#006EAF;labelBackgroundColor=none;fontColor=#7EA6E0;noEdgeStyle=1;orthogonal=1;" edge="1" parent="1" source="28" target="27"><mxGeometry relative="1" as="geometry"><Array as="points"><mxPoint x="312" y="1275"/><mxPoint x="488" y="1125"/></Array></mxGeometry></mxCell><mxCell id="WebsocketTable|PostToSubscriptionsFunction" value="Statement" style="edgeStyle=orthogonalEdgeStyle;rounded=1;orthogonalLoop=1;jettySize=auto;html=1;labelBackgroundColor=none;fontColor=#EA6B66;noEdgeStyle=1;orthogonal=1;" edge="1" parent="1" source="27" target="3"><mxGeometry relative="1" as="geometry"><Array as="points"><mxPoint x="564" y="1125"/><mxPoint x="738" y="716"/></Array></mxGeometry></mxCell><mxCell id="EntityUpdatedQueue|EntityUpdatedNotificationEventBridgeRule" value="Arn" style="edgeStyle=orthogonalEdgeStyle;rounded=1;orthogonalLoop=1;jettySize=auto;html=1;labelBackgroundColor=none;fontColor=#EA6B66;noEdgeStyle=1;orthogonal=1;" edge="1" parent="1" source="29" target="28"><mxGeometry relative="1" as="geometry"><Array as="points"><mxPoint x="62" y="1275"/><mxPoint x="238" y="1285"/></Array></mxGeometry></mxCell><mxCell id="EntityUpdatedQueue|EntityUpdatedQueuePolicy" value="Queues&#xA;Resource" style="edgeStyle=orthogonalEdgeStyle;rounded=1;orthogonalLoop=1;jettySize=auto;html=1;labelBackgroundColor=none;fontColor=#EA6B66;noEdgeStyle=1;orthogonal=1;" edge="1" parent="1" source="30" target="28"><mxGeometry relative="1" as="geometry"><Array as="points"><mxPoint x="62" y="1050"/><mxPoint x="238" y="1265"/></Array></mxGeometry></mxCell><mxCell id="JwtSignatureSecret|CreateTestJwt" value="Variable&#xA;Statement" style="edgeStyle=orthogonalEdgeStyle;rounded=1;orthogonalLoop=1;jettySize=auto;html=1;labelBackgroundColor=none;fontColor=#EA6B66;noEdgeStyle=1;orthogonal=1;" edge="1" parent="1" source="31" target="7"><mxGeometry relative="1" as="geometry"><Array as="points"><mxPoint x="812" y="800"/><mxPoint x="988" y="585.390625"/></Array></mxGeometry></mxCell></root></mxGraphModel>
            </diagram>
          </mxfile>